<svg width="350" height="350" viewBox="0 0 350 350" fill="none" xmlns="http://www.w3.org/2000/svg">
<rect x="2.5" y="2.5" width="345" height="345" rx="27.5" stroke="black" stroke-width="5"/>
<path d="M149.75 80L207 250H186.25L169.75 200H105.25L88.75 250H68L125.25 80H149.75ZM137.5 102L111 182H163.75L137.5 102Z" fill="black"/>
<path d="M255.08 247.696C250.301 250.085 245.224 251.28 239.848 251.28C235.24 251.28 231.613 250.341 228.968 248.464C226.408 246.587 224.573 244.069 223.464 240.912C222.44 237.755 221.928 234.256 221.928 230.416V195.856H210.92V186.64H221.928V168.976H232.424V186.64H253.16V195.856H232.424V230.032C232.424 234.469 233.149 237.541 234.6 239.248C236.136 240.869 238.483 241.68 241.64 241.68C243.176 241.68 244.755 241.509 246.376 241.168C248.083 240.741 249.917 240.059 251.88 239.12L255.08 247.696Z" fill="black"/>
<line x1="68" y1="273" x2="254" y2="273" stroke="black" stroke-width="10"/>
<line x1="68" y1="297" x2="209" y2="297" stroke="black" stroke-width="10"/>
<line x1="26" y1="36" x2="53" y2="36" stroke="black" stroke-width="10"/>
<line x1="26" y1="55" x2="53" y2="55" stroke="black" stroke-width="10"/>
</svg>
